<?xml version="1.0" encoding="utf-8" ?><svg xmlns="http://www.w3.org/2000/svg" xmlns:xlink="http://www.w3.org/1999/xlink" width="651" height="651" viewBox="363.174 59.153999999999996 651.0 651.0"><path fill="#FF1F1F" transform="scale(2 2)" d="M778.917 174.654L973.499 174.697C943.684 224.562 915.083 278.545 884.581 327.727C880.616 326.952 876.375 325.934 872.404 325.057C897.996 280.333 927.32 232.259 951.359 187.286L786.713 187.055C762.319 229.13 738.297 271.419 714.651 313.917C719.309 323.033 724.151 332.053 729.175 340.973C740.589 318.721 758.223 289.645 770.936 267.714C763.614 252.226 769.648 238.755 787.769 239.146C792.697 230.591 797.542 221.983 802.899 213.691L879.644 213.716C886.491 203.664 897.608 199.087 907.314 208.479C910.926 211.969 912.981 216.767 913.015 221.79C913.049 234.572 903.616 239.535 892.098 239.185C877.158 263.839 857.485 301.671 841.622 326.132C836.888 333.433 803.431 333.896 793.14 333.947C788.876 341.34 784.664 348.763 780.505 356.216C786.378 362.13 808.108 386.396 800.79 397.272C799.486 399.21 794.717 398.796 792.365 398.695C787.907 383.238 784.087 379.604 773.451 368.257C753.507 402.642 733.774 437.149 714.252 471.775L728.766 498.62L736.532 484.787C753.354 457.593 768.832 425.441 785.907 397.913C788.174 401.678 790.772 406.939 792.87 410.919C787.358 422.257 777.467 438.652 771.075 450.035L728.122 526.42L655.532 393.344C665.072 375.52 675.862 357.231 685.76 339.431C688.883 344.254 692.97 352.205 695.839 357.383L715.307 392.407L692.62 432.446L706.485 457.024C714.518 441.325 727.477 420.441 736.465 404.845L788.372 315.133C800.239 294.916 813.759 272.862 825.043 252.523L840.427 252.582C826.386 275.33 812.036 301.189 798.517 324.466C812.45 324.635 819.777 324.168 832.873 319.105C833.934 317.626 834.844 316.08 835.753 314.504C851.323 287.508 865.868 259.912 881.779 233.114C880.615 230.838 879.411 228.085 878.31 225.735L809.649 225.72C805.667 231.968 802.196 238.466 798.053 244.831C800.872 249.276 802.553 253.334 802.064 258.745C801.706 263.089 799.591 267.098 796.208 269.847C791.4 273.76 787.106 274.246 781.258 273.68C763.931 304.207 745.97 334.746 728.962 365.401C720.401 348.549 710.002 330.371 700.948 313.55L778.917 174.654Z"/><path fill="#7F8080" transform="scale(2 2)" d="M781.682 248.414C786.047 246.765 790.927 248.933 792.63 253.278C794.334 257.623 792.228 262.53 787.906 264.288C785.06 265.446 781.812 264.983 779.403 263.077C776.994 261.171 775.796 258.117 776.268 255.081C776.74 252.046 778.808 249.499 781.682 248.414Z"/><path fill="#7F8080" transform="scale(2 2)" d="M892.612 213.425C896.967 211.782 901.829 213.973 903.483 218.324C905.138 222.674 902.96 227.542 898.615 229.209C894.253 230.881 889.361 228.693 887.701 224.326C886.04 219.959 888.241 215.074 892.612 213.425Z"/><path fill="#FF1F1F" transform="scale(2 2)" d="M403.174 174.718L594.831 174.717C602.802 187.127 613.569 207.947 621.052 221.364L672.952 314.777C667.226 325.4 659.86 337.346 653.71 347.903L641.862 368.193L567.802 236.05L436.798 236.049C425.915 215.689 414.388 194.893 403.174 174.718Z"/><path fill="#FF1F1F" transform="scale(2 2)" d="M458.41 263.396L552.496 263.321C564.696 286.504 579.034 311.271 591.815 334.323C617.304 380.967 643.308 427.328 669.822 473.398C688.769 506.511 707.841 543.316 727.729 575.613C745.558 544.511 763.113 511.445 781.32 480.871C787.089 480.337 792.297 479.645 798.034 478.815C790.213 493.395 781.035 508.857 772.83 523.332L733.053 593.805L631.206 593.767L590.629 518.502C584.58 507.938 578.272 495.268 572.504 484.376C577.286 484.788 582.129 484.956 586.926 485.173C592.133 493.539 598.892 507.215 603.866 516.384C614.197 535.463 624.696 554.45 635.364 573.344C638.622 567.73 658.146 531.308 660.775 529.997L661.645 531.107C663.992 532.094 663.589 528.708 666.546 527.847C666.109 530.658 664.94 532.178 663.447 534.596L667.035 541.666C662.26 552.159 652.502 568.442 646.698 578.771L714.393 578.782L665.06 489.396C659.709 487.092 659.564 486.807 656.721 481.763C659.948 482.538 668.967 485.277 671.607 483.826C671.799 481.621 671.888 481.215 671.127 479.16C667.354 477.178 658.006 475.335 653.429 474.229C650.75 470.23 647.579 464.487 645.066 460.238C631.434 455.986 613.908 450.893 600.813 445.419C599.279 441.92 597.717 436.421 598.833 432.627L599.981 432.319C602.769 433.567 604.064 436.787 605.639 439.544C613.734 442.183 628.457 444.25 638.751 447.205C631.032 430.82 615.978 405.552 606.924 389.316L544.728 277.65L458.437 277.686L458.41 263.396Z"/><path fill="#7F8080" transform="scale(2 2)" d="M577.286 488.055L585.841 488.421C593.006 503.484 601.832 517.919 609.443 532.772C611.457 536.701 613.582 540.47 614.979 544.678C614.428 544.487 613.752 544.254 612.949 543.976C603.582 528.091 595.609 511.391 586.619 495.28C581.92 486.856 580.779 495.453 577.286 488.055Z"/><path fill="#7F8080" transform="scale(2 2)" d="M592.53 513.761C593.029 513.957 593.949 514.57 594.449 514.877C597.427 519.975 608.92 539.499 608.665 544.309C606.084 542.311 593.357 517.907 592.53 513.761Z"/><path fill="#FF1F1F" transform="scale(2 2)" d="M510.518 345.983C512.256 347.351 563.822 442.21 570.355 453.353C580.778 455.631 594.822 456.659 604.479 461.096C624.188 470.154 627.66 472.571 635.55 491.62C634.796 494.147 634.33 491.501 631.299 493.417C631.789 496.529 640.562 514.16 642.931 515.766C646.088 515.452 647.076 515.289 648.534 518.269C650.583 522.457 652.3 526.99 654.035 531.314C652.527 534.398 650.364 537.96 648.635 540.986C638.675 521.18 623.143 495.506 611.947 476.151C606.323 466.429 573.773 466.457 561.672 465.398C540.527 428.222 519.049 389.051 498.654 351.39L510.518 345.983Z"/><path fill="#FF1F1F" transform="scale(2 2)" d="M476.312 304.442L531.605 304.392C546.55 332.009 561.654 359.54 576.915 386.984C599.214 386.114 598.83 402.534 599.722 419.493L595.196 425.191L598.651 431.506C597.628 432.152 597.666 432.082 596.45 432.226C594.371 430.441 593.163 426.641 592.072 423.987C586.175 421.932 580.313 422.185 574.49 419.618C562.084 414.148 561.868 404.44 566.761 393.337C553.205 369.015 539.215 342.315 525.329 318.527L482.263 318.569C480.84 314.533 478.058 308.531 476.312 304.442Z"/><path fill="#7F8080" transform="scale(2 2)" d="M579.346 395.497C583.914 394.656 588.318 397.616 589.264 402.164C590.21 406.711 587.353 411.183 582.829 412.234C579.808 412.937 576.643 411.947 574.56 409.649C572.476 407.351 571.801 404.105 572.795 401.167C573.788 398.228 576.296 396.058 579.346 395.497Z"/><path fill="#FF1F1F" transform="scale(2 2)" d="M858.286 344.104C870.754 343.341 880.054 350.869 878.001 363.942C877.216 368.752 874.542 373.048 870.574 375.877C860.598 382.889 851.427 377.705 845.307 368.727C836.894 369.87 828.142 371.391 819.724 372.736L819.567 358.819L844.542 357.067C844.811 356.445 845.096 355.83 845.396 355.222C848.721 348.492 851.356 346.426 858.286 344.104Z"/><path fill="#7F8080" transform="scale(2 2)" d="M859.838 353.064C862.882 352.554 865.963 353.728 867.896 356.134C869.828 358.541 870.31 361.803 869.156 364.665C868.001 367.528 865.391 369.543 862.33 369.935C857.722 370.524 853.489 367.317 852.81 362.721C852.132 358.125 855.256 353.831 859.838 353.064Z"/><path fill="#FF1F1F" transform="scale(2 2)" d="M805.301 419.587L818.627 419.812L826.983 427.538C820.618 439.611 813.18 451.86 806.17 463.599C804.636 466.167 804.192 466.049 801.49 466.738C797.007 467.225 791.942 468.049 787.425 468.675C793.228 457.396 801.076 444.787 807.621 433.738C805.803 430.446 800.796 423.191 802.85 419.87L805.301 419.587Z"/><path fill="#FF1F1F" transform="scale(2 2)" d="M836.925 399.247C838.379 401.038 839.055 401.668 839.639 403.966C839.397 405.073 839.403 405.843 838.58 406.669C834.715 410.543 805.253 408.529 798.127 408.484L797.112 408.204C795.752 406.721 795.28 406.717 795.053 404.976C800.783 402.824 824.245 405.33 834.136 404.048C836.298 402.44 835.821 402.246 836.925 399.247Z"/><path fill="#FF1F1F" transform="scale(2 2)" d="M799.947 414.87C800.388 414.801 800.831 414.744 801.275 414.698C805.609 414.239 814.547 413.661 817.955 416.395C812.597 416.686 803.598 418.046 799.947 414.87Z"/><path fill="#FF1F1F" transform="scale(2 2)" d="M634.9 495.684C638.344 497.335 643.232 509.152 644.781 513.012C641.285 511.481 636.197 499.503 634.9 495.684Z"/><path fill="#FF1F1F" transform="scale(2 2)" d="M809.805 381.493C811.724 383.937 810.965 394.918 810.914 398.799C808.324 396.868 809.658 384.891 809.805 381.493Z"/><path fill="#FF1F1F" transform="scale(2 2)" d="M812.073 368.685C813.391 374.676 809.848 377.906 806.467 382.43C806.25 380.436 810.922 371.198 812.073 368.685Z"/></svg>